<svg width="180" height="180" xmlns="http://www.w3.org/2000/svg"><title>Layer 1</title><g><path d="M7.84 90C7.84 44.62 44.62 7.84 90 7.84c45.38 0 82.16 36.78 82.16 82.16 0 45.37-36.78 82.16-82.16 82.16-45.38 0-82.16-36.79-82.16-82.16z" stroke-miterlimit="10" stroke-linejoin="round" stroke-linecap="round" stroke-width="14.003" stroke="#C73E00" fill="#FF9464" clip-rule="evenodd" fill-rule="evenodd"/><path fill="#CA4600" clip-rule="evenodd" fill-rule="evenodd" d="M43.42 118.58v-14.29h14.29v-7.15H43.42V82.85h-7.15v14.29H21.99v7.15h14.28v14.29z"/><path fill="#CA4600" clip-rule="evenodd" fill-rule="evenodd" d="M47.56 32.98h93.02v12.01H47.56z"/><path stroke-miterlimit="10" stroke-linejoin="round" stroke-linecap="round" stroke-width="5.001" stroke="#CA4600" clip-rule="evenodd" fill="none" d="M58.56 44.99h72.02v20L100.57 91h-12L58.56 63.99z"/><path fill="#CA4600" clip-rule="evenodd" fill-rule="evenodd" d="M77.57 62.99h36.01L95.57 83z"/><path fill="#CA4600" clip-rule="evenodd" fill-rule="evenodd" d="M47.56 138.01h93.02v12H47.56z"/><path stroke-miterlimit="10" stroke-linejoin="round" stroke-linecap="round" stroke-width="5.001" stroke="#CA4600" clip-rule="evenodd" fill="none" d="M58.57 138.01h72.01V118l-30.01-26h-12l-30 27z"/><path fill="#CA4600" clip-rule="evenodd" fill-rule="evenodd" d="M68.57 132.01h53.01L94.57 102z"/></g></svg>