<svg width="180" height="180" xmlns="http://www.w3.org/2000/svg"><title>Layer 1</title><g><path d="M8 90.16C8 44.78 44.78 8 90.16 8c45.38 0 82.16 36.78 82.16 82.16 0 45.37-36.78 82.16-82.16 82.16C44.78 172.32 8 135.53 8 90.16z" stroke-miterlimit="10" stroke-linejoin="round" stroke-linecap="round" stroke-width="14.003" stroke="#C73E00" fill="#FF9464" clip-rule="evenodd" fill-rule="evenodd"/><path fill="#CA4600" clip-rule="evenodd" fill-rule="evenodd" d="M43.72 118.74v-14.29h14.29V97.3H43.72V83.01h-7.14V97.3H22.29v7.15h14.29v14.29z"/><path d="M100.73 98.21c5.36 1.56 9.21 3.5 11.52 5.84 2.32 2.35 3.49 5.46 3.49 9.32 0 4.53-1.42 8.34-4.25 11.42s-6.41 4.88-10.76 5.38V98.21zm-7-14.35c-5.47-1.58-9.17-3.5-11.11-5.78-1.94-2.27-2.89-5.1-2.89-8.47 0-3.41 1.25-6.35 3.75-8.85 2.5-2.49 5.91-4.02 10.25-4.61v27.71zm7 69.31v-12c7.97-.38 14.46-3.19 19.48-8.46 5.01-5.26 7.53-11.84 7.53-19.74 0-3.56-.61-6.89-1.81-9.97-1.21-3.07-2.92-5.73-5.16-7.97-2.23-2.23-5.13-4.12-8.66-5.69-1.86-.79-5.66-1.95-11.38-3.45V57.15c3.72.66 6.65 2.03 8.79 4.09 2.12 2.07 3.53 5.04 4.22 8.91l12-2c-1.03-7.25-4.05-12.97-9.08-17.14-3.94-3.27-9.24-5.22-15.93-5.86v-5h-7v5c-7.66.73-13.42 2.72-17.3 5.97-5.81 4.84-8.7 11.17-8.7 18.97 0 4.41.95 8.33 2.89 11.78 1.92 3.46 4.67 6.16 8.23 8.1 4.8 2.66 9.76 4.72 14.88 6.2v34c-4.42-.41-8.22-2.43-11.37-6.02-2.22-2.55-3.76-6.55-4.63-11.99l-12 2c.42 5.97 1.95 11.04 4.58 15.16 2.62 4.14 5.73 7.14 9.34 8.99 3.61 1.84 8.3 3.12 14.08 3.86v11h7z" fill="#CA4600" clip-rule="evenodd" fill-rule="evenodd"/></g></svg>